<?xml version="1.0" encoding="UTF-8"?>
<svg xmlns="http://www.w3.org/2000/svg" xmlns:xlink="http://www.w3.org/1999/xlink" viewBox="0 0 100 100" width="28px" height="28px">
<g id="surface30962246">
<path style=" stroke:none;fill-rule:nonzero;fill:rgb(100%,100%,100%);fill-opacity:1;" d="M 50 3.839844 C 24.53125 3.839844 3.839844 24.53125 3.839844 50 C 3.839844 75.46875 24.53125 96.160156 50 96.160156 C 75.46875 96.160156 96.160156 75.46875 96.160156 50 C 96.160156 24.53125 75.46875 3.839844 50 3.839844 Z M 48 8.074219 L 48 27.941406 C 42.863281 27.820312 37.984375 27.246094 33.480469 26.304688 C 34.273438 23.902344 35.175781 21.671875 36.175781 19.667969 C 39.480469 13.054688 43.675781 9.03125 48 8.074219 Z M 52 8.074219 C 56.324219 9.03125 60.519531 13.054688 63.824219 19.667969 C 64.828125 21.675781 65.734375 23.917969 66.527344 26.328125 C 62.03125 27.261719 57.140625 27.824219 52 27.941406 Z M 38.34375 9.480469 C 36.171875 11.753906 34.238281 14.601562 32.597656 17.878906 C 31.453125 20.164062 30.453125 22.683594 29.578125 25.375 C 25.652344 24.316406 22.101562 22.984375 19.035156 21.4375 C 24.195312 15.84375 30.820312 11.636719 38.34375 9.480469 Z M 61.65625 9.480469 C 69.171875 11.632812 75.792969 15.839844 80.949219 21.421875 C 77.929688 22.996094 74.382812 24.34375 70.433594 25.40625 C 69.558594 22.703125 68.550781 20.171875 67.402344 17.878906 C 65.761719 14.601562 63.828125 11.753906 61.65625 9.480469 Z M 83.566406 24.546875 C 88.5625 31.125 91.699219 39.191406 92.109375 48 L 74.027344 48 C 73.882812 41.285156 73.023438 34.945312 71.554688 29.265625 C 76.042969 28.050781 80.085938 26.460938 83.566406 24.546875 Z M 16.410156 24.578125 C 19.925781 26.445312 23.980469 28.015625 28.453125 29.230469 C 26.980469 34.917969 26.117188 41.273438 25.972656 48 L 7.890625 48 C 8.300781 39.207031 11.429688 31.152344 16.410156 24.578125 Z M 32.351562 30.171875 C 37.214844 31.207031 42.472656 31.824219 48 31.945312 L 48 48 L 29.972656 48 C 30.121094 41.574219 30.960938 35.523438 32.351562 30.171875 Z M 67.65625 30.199219 C 69.042969 35.546875 69.878906 41.585938 70.027344 48 L 52 48 L 52 31.945312 C 57.527344 31.828125 62.792969 31.222656 67.65625 30.199219 Z M 7.890625 52 L 25.972656 52 C 26.117188 58.714844 26.976562 65.054688 28.445312 70.734375 C 23.957031 71.949219 19.914062 73.539062 16.433594 75.453125 C 11.4375 68.875 8.300781 60.808594 7.890625 52 Z M 29.972656 52 L 48 52 L 48 68.054688 C 42.472656 68.171875 37.207031 68.777344 32.34375 69.800781 C 30.957031 64.453125 30.121094 58.414062 29.972656 52 Z M 52 52 L 70.027344 52 C 69.878906 58.425781 69.039062 64.476562 67.648438 69.828125 C 62.785156 68.792969 57.527344 68.175781 52 68.054688 Z M 74.027344 52 L 92.109375 52 C 91.699219 60.792969 88.570312 68.847656 83.589844 75.421875 C 80.074219 73.554688 76.019531 71.984375 71.546875 70.769531 C 73.019531 65.082031 73.882812 58.726562 74.027344 52 Z M 48 72.058594 L 48 91.925781 C 43.675781 90.96875 39.480469 86.945312 36.175781 80.332031 C 35.171875 78.324219 34.265625 76.082031 33.472656 73.671875 C 37.96875 72.738281 42.859375 72.175781 48 72.058594 Z M 52 72.058594 C 57.136719 72.179688 62.015625 72.753906 66.519531 73.695312 C 65.726562 76.097656 64.824219 78.328125 63.824219 80.332031 C 60.519531 86.945312 56.324219 90.96875 52 91.925781 Z M 29.566406 74.59375 C 30.441406 77.296875 31.449219 79.828125 32.597656 82.121094 C 34.238281 85.398438 36.171875 88.246094 38.34375 90.519531 C 30.828125 88.367188 24.207031 84.160156 19.050781 78.578125 C 22.070312 77.003906 25.617188 75.65625 29.566406 74.59375 Z M 70.421875 74.625 C 74.347656 75.683594 77.898438 77.015625 80.964844 78.5625 C 75.804688 84.15625 69.179688 88.363281 61.65625 90.519531 C 63.828125 88.246094 65.761719 85.398438 67.402344 82.121094 C 68.546875 79.835938 69.546875 77.316406 70.421875 74.625 Z M 70.421875 74.625 "/>
</g>
</svg>
