<?xml version="1.0" encoding="UTF-8"?>
<svg xmlns="http://www.w3.org/2000/svg" xmlns:xlink="http://www.w3.org/1999/xlink" viewBox="0 0 96 96" width="96px" height="96px">
<g id="surface62925120">
<path style=" stroke:none;fill-rule:nonzero;fill:rgb(28.235295%,58.431375%,93.725491%);fill-opacity:1;" d="M 85.980469 18.261719 C 85.980469 19.179688 85.421875 20.027344 84.558594 20.335938 C 77.238281 22.945312 66 32.542969 66 48 C 66 50.65625 66.453125 52 67.480469 52 C 68.683594 52 70.589844 50 76 50 C 82.578125 50 90 55.242188 90 64.117188 C 90 71.882812 84.175781 80 74 80 C 65.730469 80 54 73.835938 54 55.8125 C 54 30.859375 72.792969 20.265625 82.863281 16.191406 C 84.351562 15.59375 85.980469 16.65625 85.980469 18.261719 Z M 85.980469 18.261719 "/>
<path style=" stroke:none;fill-rule:nonzero;fill:rgb(28.235295%,58.431375%,93.725491%);fill-opacity:1;" d="M 37.980469 18.261719 C 37.980469 19.179688 37.421875 20.027344 36.558594 20.335938 C 29.238281 22.945312 18 32.542969 18 48 C 18 50.65625 18.453125 52 19.480469 52 C 20.683594 52 22.589844 50 28 50 C 34.578125 50 42 55.242188 42 64.117188 C 42 71.882812 36.175781 80 26 80 C 17.730469 80 6 73.835938 6 55.8125 C 6 30.859375 24.792969 20.265625 34.863281 16.191406 C 36.351562 15.59375 37.980469 16.65625 37.980469 18.261719 Z M 37.980469 18.261719 "/>
</g>
</svg>
