<?xml version="1.0" encoding="UTF-8"?>
<svg xmlns="http://www.w3.org/2000/svg" xmlns:xlink="http://www.w3.org/1999/xlink" viewBox="0 0 100 100" width="20px" height="20px">
<g id="surface17385556">
<path style=" stroke:none;fill-rule:nonzero;fill:rgb(100%,100%,100%);fill-opacity:1;" d="M 50 4 C 24.617188 4 4 24.617188 4 50 C 4 75.382812 24.617188 96 50 96 C 75.382812 96 96 75.382812 96 50 C 96 24.617188 75.382812 4 50 4 Z M 50 8 C 73.21875 8 92 26.78125 92 50 C 92 73.21875 73.21875 92 50 92 C 26.78125 92 8 73.21875 8 50 C 8 26.78125 26.78125 8 50 8 Z M 43.8125 27.9375 C 43.726562 27.953125 43.640625 27.976562 43.5625 28 C 42.8125 28.132812 42.210938 28.679688 42 29.40625 C 41.789062 30.140625 42.007812 30.921875 42.5625 31.4375 L 61.125 50 L 42.5625 68.5625 C 41.765625 69.359375 41.765625 70.640625 42.5625 71.4375 C 43.359375 72.234375 44.640625 72.234375 45.4375 71.4375 L 65.4375 51.4375 C 65.828125 51.0625 66.046875 50.539062 66.046875 50 C 66.046875 49.460938 65.828125 48.9375 65.4375 48.5625 L 45.4375 28.5625 C 45.023438 28.117188 44.421875 27.890625 43.8125 27.9375 Z M 43.8125 27.9375 "/>
</g>
</svg>
