<?xml version="1.0" encoding="UTF-8"?>
<svg xmlns="http://www.w3.org/2000/svg" xmlns:xlink="http://www.w3.org/1999/xlink" viewBox="0 0 100 100" width="20px" height="20px">
<g id="surface53990888">
<path style=" stroke:none;fill-rule:nonzero;fill:rgb(80.000001%,80.000001%,80.000001%);fill-opacity:1;" d="M 6 0 C 2.710938 0 0 2.710938 0 6 L 0 94 C 0 97.289062 2.710938 100 6 100 L 74 100 C 77.289062 100 80 97.289062 80 94 L 80 78 L 76 82 L 76 94 C 76 95.125 75.125 96 74 96 L 6 96 C 4.875 96 4 95.125 4 94 L 4 6 C 4 4.867188 4.867188 4 6 4 L 74 4 C 75.125 4 76 4.875 76 6 L 76 18 L 80 22 L 80 6 C 80 2.710938 77.289062 0 74 0 Z M 75.6875 26.1875 C 74.9375 26.320312 74.335938 26.867188 74.125 27.59375 C 73.914062 28.328125 74.132812 29.109375 74.6875 29.625 L 93.0625 48 L 34 48 C 33.9375 48 33.875 48 33.8125 48 C 32.710938 48.054688 31.851562 48.992188 31.90625 50.09375 C 31.960938 51.195312 32.898438 52.054688 34 52 L 93.0625 52 L 74.6875 70.375 C 74.09375 70.859375 73.820312 71.632812 73.992188 72.382812 C 74.164062 73.125 74.75 73.710938 75.492188 73.882812 C 76.242188 74.054688 77.015625 73.78125 77.5 73.1875 L 99.3125 51.4375 L 100.6875 50 L 99.3125 48.5625 L 77.5 26.8125 C 77.085938 26.367188 76.484375 26.140625 75.875 26.1875 C 75.8125 26.1875 75.75 26.1875 75.6875 26.1875 Z M 75.6875 26.1875 "/>
</g>
</svg>
