<?xml version="1.0" encoding="UTF-8"?>
<svg xmlns="http://www.w3.org/2000/svg" xmlns:xlink="http://www.w3.org/1999/xlink" viewBox="0 0 128 128" width="32px" height="32px">
<g id="surface23624606">
<path style=" stroke:none;fill-rule:nonzero;fill:rgb(100%,100%,100%);fill-opacity:1;" d="M 97.398438 78.550781 C 97.242188 78.550781 97.085938 78.523438 96.933594 78.460938 C 96.292969 78.207031 95.980469 77.476562 96.238281 76.835938 C 97.863281 72.753906 98.691406 68.433594 98.691406 64 C 98.691406 44.871094 83.128906 29.308594 64 29.308594 C 44.871094 29.308594 29.308594 44.871094 29.308594 64 C 29.308594 68.433594 30.136719 72.753906 31.761719 76.835938 C 32.019531 77.476562 31.707031 78.207031 31.066406 78.460938 C 30.421875 78.71875 29.695312 78.402344 29.441406 77.761719 C 27.695312 73.382812 26.808594 68.753906 26.808594 64 C 26.808594 43.492188 43.492188 26.808594 64 26.808594 C 84.507812 26.808594 101.191406 43.492188 101.191406 64 C 101.191406 68.753906 100.304688 73.382812 98.558594 77.761719 C 98.363281 78.253906 97.894531 78.550781 97.398438 78.550781 Z M 97.398438 78.550781 "/>
<path style=" stroke:none;fill-rule:nonzero;fill:rgb(100%,100%,100%);fill-opacity:1;" d="M 64.027344 72.207031 C 59.496094 72.207031 55.808594 68.523438 55.808594 63.992188 C 55.808594 63.46875 55.863281 62.945312 55.964844 62.425781 L 42.195312 48.65625 C 41.328125 47.789062 40.851562 46.640625 40.851562 45.417969 C 40.851562 44.191406 41.328125 43.042969 42.195312 42.175781 C 43.980469 40.390625 46.886719 40.390625 48.671875 42.175781 L 62.429688 55.933594 C 62.960938 55.828125 63.492188 55.777344 64.027344 55.777344 C 68.558594 55.777344 72.242188 59.460938 72.242188 63.992188 C 72.242188 68.523438 68.554688 72.207031 64.027344 72.207031 Z M 45.433594 43.335938 C 44.902344 43.335938 44.367188 43.539062 43.960938 43.945312 C 43.570312 44.335938 43.351562 44.859375 43.351562 45.414062 C 43.351562 45.972656 43.570312 46.496094 43.960938 46.886719 L 58.226562 61.152344 C 58.550781 61.476562 58.671875 61.949219 58.542969 62.386719 C 58.386719 62.914062 58.308594 63.457031 58.308594 63.992188 C 58.308594 67.144531 60.875 69.707031 64.027344 69.707031 C 67.179688 69.707031 69.742188 67.144531 69.742188 63.992188 C 69.742188 60.839844 67.179688 58.273438 64.027344 58.273438 C 63.480469 58.273438 62.933594 58.355469 62.398438 58.515625 C 61.960938 58.644531 61.484375 58.523438 61.160156 58.199219 L 46.90625 43.945312 C 46.5 43.539062 45.96875 43.335938 45.433594 43.335938 Z M 45.433594 43.335938 "/>
<path style=" stroke:none;fill-rule:nonzero;fill:rgb(100%,100%,100%);fill-opacity:1;" d="M 64 16.917969 C 38.039062 16.917969 16.917969 38.039062 16.917969 64 C 16.917969 68.652344 17.59375 73.246094 18.929688 77.660156 C 19.128906 78.320312 19.824219 78.695312 20.488281 78.496094 C 21.148438 78.296875 21.523438 77.597656 21.320312 76.9375 C 20.058594 72.757812 19.414062 68.40625 19.414062 64 C 19.414062 56.167969 21.449219 48.800781 25.011719 42.394531 C 25.03125 42.40625 25.042969 42.421875 25.0625 42.433594 L 37.890625 49.839844 C 38.085938 49.953125 38.300781 50.007812 38.511719 50.007812 C 38.945312 50.007812 39.363281 49.78125 39.597656 49.382812 C 39.941406 48.785156 39.738281 48.019531 39.140625 47.671875 L 26.3125 40.265625 C 26.304688 40.261719 26.292969 40.257812 26.285156 40.253906 C 33.980469 28.074219 47.40625 19.859375 62.75 19.433594 L 62.75 34.042969 C 62.75 34.734375 63.308594 35.292969 64 35.292969 C 64.691406 35.292969 65.25 34.734375 65.25 34.042969 L 65.25 19.433594 C 80.59375 19.859375 94.019531 28.074219 101.714844 40.253906 C 101.707031 40.257812 101.695312 40.261719 101.6875 40.265625 L 88.859375 47.671875 C 88.261719 48.019531 88.058594 48.785156 88.402344 49.382812 C 88.632812 49.78125 89.054688 50.007812 89.488281 50.007812 C 89.699219 50.007812 89.914062 49.953125 90.109375 49.839844 L 102.9375 42.433594 C 102.957031 42.421875 102.96875 42.40625 102.988281 42.394531 C 106.550781 48.800781 108.582031 56.167969 108.582031 64 C 108.582031 68.40625 107.941406 72.757812 106.679688 76.9375 C 106.476562 77.597656 106.851562 78.296875 107.511719 78.496094 C 107.632812 78.53125 107.753906 78.546875 107.875 78.546875 C 108.410156 78.546875 108.90625 78.199219 109.070312 77.660156 C 110.40625 73.25 111.082031 68.652344 111.082031 64 C 111.082031 38.039062 89.960938 16.917969 64 16.917969 Z M 64 16.917969 "/>
<path style=" stroke:none;fill-rule:nonzero;fill:rgb(100%,100%,100%);fill-opacity:1;" d="M 103.039062 81.832031 L 24.960938 81.832031 C 24.269531 81.832031 23.710938 82.390625 23.710938 83.082031 L 23.710938 115.714844 C 23.710938 116.40625 24.269531 116.964844 24.960938 116.964844 L 103.039062 116.964844 C 103.730469 116.964844 104.289062 116.40625 104.289062 115.714844 L 104.289062 83.082031 C 104.289062 82.390625 103.730469 81.832031 103.039062 81.832031 Z M 101.789062 114.464844 L 26.210938 114.464844 L 26.210938 84.332031 L 101.789062 84.332031 Z M 101.789062 114.464844 "/>
<path style=" stroke:none;fill-rule:nonzero;fill:rgb(100%,100%,100%);fill-opacity:1;" d="M 51.414062 110.261719 C 50.722656 110.261719 50.164062 109.703125 50.164062 109.011719 L 50.164062 93.664062 L 45.523438 100.128906 C 45.292969 100.445312 44.925781 100.640625 44.53125 100.648438 C 44.132812 100.675781 43.765625 100.476562 43.523438 100.167969 L 38.238281 93.410156 L 38.238281 109.011719 C 38.238281 109.703125 37.679688 110.261719 36.988281 110.261719 C 36.300781 110.261719 35.738281 109.703125 35.738281 109.011719 L 35.738281 89.78125 C 35.738281 89.25 36.078125 88.773438 36.582031 88.601562 C 37.085938 88.425781 37.644531 88.589844 37.976562 89.011719 L 44.464844 97.3125 L 50.398438 89.050781 C 50.714844 88.613281 51.28125 88.425781 51.796875 88.59375 C 52.3125 88.757812 52.664062 89.238281 52.664062 89.78125 L 52.664062 109.011719 C 52.664062 109.703125 52.105469 110.261719 51.414062 110.261719 Z M 51.414062 110.261719 "/>
<path style=" stroke:none;fill-rule:nonzero;fill:rgb(100%,100%,100%);fill-opacity:1;" d="M 71.210938 88.53125 L 61.597656 88.53125 C 60.90625 88.53125 60.347656 89.089844 60.347656 89.78125 L 60.347656 109.011719 C 60.347656 109.703125 60.90625 110.261719 61.597656 110.261719 C 62.285156 110.261719 62.847656 109.703125 62.847656 109.011719 L 62.847656 100.648438 L 71.210938 100.648438 C 71.902344 100.648438 72.460938 100.089844 72.460938 99.398438 L 72.460938 89.78125 C 72.460938 89.09375 71.902344 88.53125 71.210938 88.53125 Z M 62.847656 98.148438 L 62.847656 91.03125 L 69.960938 91.03125 L 69.960938 98.148438 Z M 62.847656 98.148438 "/>
<path style=" stroke:none;fill-rule:nonzero;fill:rgb(100%,100%,100%);fill-opacity:1;" d="M 91.011719 88.53125 C 90.320312 88.53125 89.761719 89.089844 89.761719 89.78125 L 89.761719 98.148438 L 82.644531 98.148438 L 82.644531 89.78125 C 82.644531 89.089844 82.085938 88.53125 81.394531 88.53125 C 80.703125 88.53125 80.144531 89.089844 80.144531 89.78125 L 80.144531 109.011719 C 80.144531 109.703125 80.703125 110.261719 81.394531 110.261719 C 82.085938 110.261719 82.644531 109.703125 82.644531 109.011719 L 82.644531 100.648438 L 89.761719 100.648438 L 89.761719 109.011719 C 89.761719 109.703125 90.320312 110.261719 91.011719 110.261719 C 91.699219 110.261719 92.261719 109.703125 92.261719 109.011719 L 92.261719 89.78125 C 92.261719 89.09375 91.699219 88.53125 91.011719 88.53125 Z M 91.011719 88.53125 "/>
</g>
</svg>
